<mxfile host="app.diagrams.net" agent="Mozilla/5.0 (Windows NT 10.0; Win64; x64) AppleWebKit/537.36 (KHTML, like Gecko) Chrome/134.0.0.0 Safari/537.36 OPR/119.0.0.0" version="27.1.4">
  <diagram name="Page-1" id="kS8TaYgpBWPOhOATg9PY">
    <mxGraphModel dx="982" dy="513" grid="1" gridSize="10" guides="1" tooltips="1" connect="1" arrows="1" fold="1" page="1" pageScale="1" pageWidth="850" pageHeight="1100" math="0" shadow="0">
      <root>
        <mxCell id="0" />
        <mxCell id="1" parent="0" />
        <mxCell id="Qa5L9sLJgaqvOV7QPSgW-1" value="Surfboard" style="swimlane;whiteSpace=wrap;html=1;fillColor=#ffe6cc;strokeColor=#000000;" parent="1" vertex="1">
          <mxGeometry x="40" y="80" width="240" height="240" as="geometry">
            <mxRectangle x="120" y="120" width="90" height="30" as="alternateBounds" />
          </mxGeometry>
        </mxCell>
        <mxCell id="Qa5L9sLJgaqvOV7QPSgW-5" value="GPS / Location" style="whiteSpace=wrap;html=1;aspect=fixed;" parent="Qa5L9sLJgaqvOV7QPSgW-1" vertex="1">
          <mxGeometry x="160" y="160" width="70" height="70" as="geometry" />
        </mxCell>
        <mxCell id="Qa5L9sLJgaqvOV7QPSgW-6" value="Anchor Point" style="whiteSpace=wrap;html=1;aspect=fixed;" parent="Qa5L9sLJgaqvOV7QPSgW-1" vertex="1">
          <mxGeometry x="160" y="30" width="70" height="70" as="geometry" />
        </mxCell>
        <mxCell id="Qa5L9sLJgaqvOV7QPSgW-2" value="Locker" style="swimlane;whiteSpace=wrap;html=1;startSize=23;fillColor=#f8cecc;strokeColor=#000000;" parent="1" vertex="1">
          <mxGeometry x="300" y="80" width="240" height="240" as="geometry" />
        </mxCell>
        <mxCell id="Qa5L9sLJgaqvOV7QPSgW-9" value="Lock Mechanism" style="whiteSpace=wrap;html=1;aspect=fixed;" parent="Qa5L9sLJgaqvOV7QPSgW-2" vertex="1">
          <mxGeometry x="10" y="30" width="70" height="70" as="geometry" />
        </mxCell>
        <mxCell id="Qa5L9sLJgaqvOV7QPSgW-16" style="edgeStyle=orthogonalEdgeStyle;rounded=0;orthogonalLoop=1;jettySize=auto;html=1;entryX=1;entryY=0.5;entryDx=0;entryDy=0;endSize=5;" parent="Qa5L9sLJgaqvOV7QPSgW-2" source="Qa5L9sLJgaqvOV7QPSgW-14" target="Qa5L9sLJgaqvOV7QPSgW-9" edge="1">
          <mxGeometry relative="1" as="geometry" />
        </mxCell>
        <mxCell id="Qa5L9sLJgaqvOV7QPSgW-14" value="Controller" style="whiteSpace=wrap;html=1;aspect=fixed;" parent="Qa5L9sLJgaqvOV7QPSgW-2" vertex="1">
          <mxGeometry x="160" y="30" width="70" height="70" as="geometry" />
        </mxCell>
        <mxCell id="Qa5L9sLJgaqvOV7QPSgW-19" value="QR" style="rounded=0;whiteSpace=wrap;html=1;" parent="Qa5L9sLJgaqvOV7QPSgW-2" vertex="1">
          <mxGeometry x="160" y="160" width="70" height="70" as="geometry" />
        </mxCell>
        <mxCell id="Qa5L9sLJgaqvOV7QPSgW-22" value="Timer" style="rounded=0;whiteSpace=wrap;html=1;" parent="Qa5L9sLJgaqvOV7QPSgW-2" vertex="1">
          <mxGeometry x="10" y="160" width="70" height="70" as="geometry" />
        </mxCell>
        <mxCell id="Qa5L9sLJgaqvOV7QPSgW-23" style="edgeStyle=orthogonalEdgeStyle;rounded=1;orthogonalLoop=1;jettySize=auto;html=1;entryX=1;entryY=0.5;entryDx=0;entryDy=0;curved=0;" parent="Qa5L9sLJgaqvOV7QPSgW-2" source="Qa5L9sLJgaqvOV7QPSgW-14" target="Qa5L9sLJgaqvOV7QPSgW-22" edge="1">
          <mxGeometry relative="1" as="geometry">
            <Array as="points">
              <mxPoint x="120" y="65" />
              <mxPoint x="120" y="195" />
            </Array>
          </mxGeometry>
        </mxCell>
        <mxCell id="Qa5L9sLJgaqvOV7QPSgW-3" value="App" style="swimlane;whiteSpace=wrap;html=1;startSize=23;fillColor=#dae8fc;strokeColor=#000000;" parent="1" vertex="1">
          <mxGeometry x="560" y="80" width="240" height="240" as="geometry" />
        </mxCell>
        <mxCell id="Qa5L9sLJgaqvOV7QPSgW-12" style="edgeStyle=orthogonalEdgeStyle;rounded=0;orthogonalLoop=1;jettySize=auto;html=1;endSize=5;" parent="Qa5L9sLJgaqvOV7QPSgW-3" source="Qa5L9sLJgaqvOV7QPSgW-7" target="Qa5L9sLJgaqvOV7QPSgW-11" edge="1">
          <mxGeometry relative="1" as="geometry" />
        </mxCell>
        <mxCell id="Qa5L9sLJgaqvOV7QPSgW-7" value="Payment System" style="whiteSpace=wrap;html=1;aspect=fixed;" parent="Qa5L9sLJgaqvOV7QPSgW-3" vertex="1">
          <mxGeometry x="160" y="160" width="70" height="70" as="geometry" />
        </mxCell>
        <mxCell id="Qa5L9sLJgaqvOV7QPSgW-11" value="Control Center" style="whiteSpace=wrap;html=1;aspect=fixed;" parent="Qa5L9sLJgaqvOV7QPSgW-3" vertex="1">
          <mxGeometry x="10" y="160" width="70" height="70" as="geometry" />
        </mxCell>
        <mxCell id="Qa5L9sLJgaqvOV7QPSgW-21" style="edgeStyle=orthogonalEdgeStyle;rounded=1;orthogonalLoop=1;jettySize=auto;html=1;curved=0;" parent="Qa5L9sLJgaqvOV7QPSgW-3" source="Qa5L9sLJgaqvOV7QPSgW-18" target="Qa5L9sLJgaqvOV7QPSgW-7" edge="1">
          <mxGeometry relative="1" as="geometry" />
        </mxCell>
        <mxCell id="Qa5L9sLJgaqvOV7QPSgW-18" value="Website / App" style="whiteSpace=wrap;html=1;aspect=fixed;" parent="Qa5L9sLJgaqvOV7QPSgW-3" vertex="1">
          <mxGeometry x="10" y="30" width="70" height="70" as="geometry" />
        </mxCell>
        <mxCell id="Qa5L9sLJgaqvOV7QPSgW-10" style="rounded=1;orthogonalLoop=1;jettySize=auto;html=1;startArrow=none;startFill=0;curved=0;endSize=5;startSize=6;" parent="1" source="Qa5L9sLJgaqvOV7QPSgW-9" target="Qa5L9sLJgaqvOV7QPSgW-6" edge="1">
          <mxGeometry relative="1" as="geometry" />
        </mxCell>
        <mxCell id="Qa5L9sLJgaqvOV7QPSgW-15" style="edgeStyle=orthogonalEdgeStyle;rounded=1;orthogonalLoop=1;jettySize=auto;html=1;entryX=1;entryY=0.5;entryDx=0;entryDy=0;curved=0;endSize=5;" parent="1" source="Qa5L9sLJgaqvOV7QPSgW-11" target="Qa5L9sLJgaqvOV7QPSgW-14" edge="1">
          <mxGeometry relative="1" as="geometry" />
        </mxCell>
        <mxCell id="Qa5L9sLJgaqvOV7QPSgW-17" style="edgeStyle=orthogonalEdgeStyle;rounded=1;orthogonalLoop=1;jettySize=auto;html=1;entryX=0.5;entryY=1;entryDx=0;entryDy=0;curved=0;endSize=5;" parent="1" source="Qa5L9sLJgaqvOV7QPSgW-5" target="Qa5L9sLJgaqvOV7QPSgW-14" edge="1">
          <mxGeometry relative="1" as="geometry">
            <Array as="points">
              <mxPoint x="235" y="210" />
              <mxPoint x="495" y="210" />
            </Array>
          </mxGeometry>
        </mxCell>
        <mxCell id="Qa5L9sLJgaqvOV7QPSgW-20" style="edgeStyle=orthogonalEdgeStyle;rounded=1;orthogonalLoop=1;jettySize=auto;html=1;entryX=0.5;entryY=1;entryDx=0;entryDy=0;curved=0;exitX=0.5;exitY=0;exitDx=0;exitDy=0;" parent="1" source="Qa5L9sLJgaqvOV7QPSgW-19" target="Qa5L9sLJgaqvOV7QPSgW-18" edge="1">
          <mxGeometry relative="1" as="geometry">
            <Array as="points">
              <mxPoint x="495" y="220" />
              <mxPoint x="605" y="220" />
            </Array>
          </mxGeometry>
        </mxCell>
      </root>
    </mxGraphModel>
  </diagram>
</mxfile>
